<?xml version="1.0" encoding="utf-8"?>
<!-- Generator: Adobe Illustrator 21.0.1, SVG Export Plug-In . SVG Version: 6.00 Build 0)  -->
<svg version="1.1" id="Layer_1" focusable="false" xmlns="http://www.w3.org/2000/svg" xmlns:xlink="http://www.w3.org/1999/xlink"
	 x="0px" y="0px" viewBox="0 0 384 512" style="enable-background:new 0 0 384 512;" xml:space="preserve">
<style type="text/css">
	.st0{fill:#FFFFFF;}
</style>
<path class="st0" d="M384,121.9v6.1H256V0h6.1c6.4,0,12.5,2.5,17,7L377,105C381.5,109.5,384,115.6,384,121.9z M248,160
	c-13.2,0-24-10.8-24-24V0H24C10.7,0,0,10.7,0,24v464c0,13.3,10.7,24,24,24h336c13.3,0,24-10.7,24-24V160H248z M123.2,400.5
	c-2,2.2-5.5,2.3-7.6,0.2c0,0,0,0,0,0l-64.9-60.8c-2.2-2-2.3-5.5-0.2-7.6c0.1-0.1,0.2-0.2,0.2-0.2l64.9-60.8c2.2-2,5.6-1.9,7.6,0.2
	c0,0,0,0,0,0l19.6,20.9c2,2.2,1.9,5.6-0.2,7.6c0,0-0.1,0.1-0.1,0.1L101.7,336l40.8,35.9c2.2,2,2.5,5.4,0.5,7.6c0,0-0.1,0.1-0.1,0.1
	L123.2,400.5L123.2,400.5z M174.5,451l-27.5-8c-2.9-0.8-4.5-3.8-3.7-6.7l61.4-211.6c0.8-2.9,3.8-4.5,6.7-3.7l27.5,8
	c2.9,0.8,4.5,3.8,3.7,6.7c0,0,0,0,0,0l-61.4,211.6C180.4,450.2,177.4,451.8,174.5,451C174.5,451,174.5,451,174.5,451L174.5,451z
	 M335.3,339.9l-64.9,60.8c-2.2,2-5.6,1.9-7.6-0.2c0,0,0,0,0,0l-19.6-20.9c-2-2.2-1.9-5.6,0.2-7.6c0,0,0.1-0.1,0.1-0.1l40.8-35.9
	l-40.8-35.9c-2.2-2-2.5-5.4-0.5-7.6c0,0,0.1-0.1,0.1-0.1l19.6-20.9c2-2.2,5.5-2.3,7.6-0.2c0,0,0,0,0,0l64.9,60.8
	c2.2,2,2.3,5.5,0.2,7.6C335.5,339.8,335.4,339.9,335.3,339.9L335.3,339.9z"/>
</svg>
