<?xml version="1.0" encoding="utf-8"?>
<!-- Generator: Adobe Illustrator 21.0.1, SVG Export Plug-In . SVG Version: 6.00 Build 0)  -->
<svg version="1.1" id="Layer_1" focusable="false" xmlns="http://www.w3.org/2000/svg" xmlns:xlink="http://www.w3.org/1999/xlink"
	 x="0px" y="0px" viewBox="0 0 384 512" style="enable-background:new 0 0 384 512;" xml:space="preserve">
<style type="text/css">
	.st0{fill:#606060;}
</style>
<path class="st0" d="M369.9,97.9L286,14c-9-9-21.2-14.1-33.9-14.1H48C21.5,0,0,21.5,0,48v416c0,26.5,21.5,48,48,48h288
	c26.5,0,48-21.5,48-48V131.9C384,119.2,378.9,106.9,369.9,97.9z M332.1,128H256V51.9L332.1,128z M48,464V48h160v104
	c0,13.3,10.7,24,24,24h104v288H48z M80,416h224V288l-23.5-23.5c-4.7-4.7-12.3-4.7-17,0L176,352l-39.5-39.5c-4.7-4.7-12.3-4.7-17,0
	L80,352V416z M128,176c-26.5,0-48,21.5-48,48s21.5,48,48,48s48-21.5,48-48S154.5,176,128,176z"/>
</svg>
